<?xml version="1.0" encoding="utf-8"?>
<!-- Generator: Adobe Illustrator 22.0.1, SVG Export Plug-In . SVG Version: 6.00 Build 0)  -->
<svg version="1.1" xmlns="http://www.w3.org/2000/svg" xmlns:xlink="http://www.w3.org/1999/xlink" x="0px" y="0px"
	 viewBox="0 0 37.4 12" style="enable-background:new 0 0 37.4 12;" xml:space="preserve">
<style type="text/css">
	.st0{fill:#214293;}
	.st1{fill:#F7D31E;}
	.st2{fill:#FFFFFF;}
	.st3{fill:#9D9FA2;}
	.st4{fill:#6F7173;}
	.st5{fill:#8F9194;}
	.st6{clip-path:url(#SVGID_2_);}
	.st7{clip-path:url(#SVGID_4_);fill:#F7D31E;stroke:#FFFFFF;stroke-width:0.3731;stroke-miterlimit:10;}
	.st8{clip-path:url(#SVGID_6_);}
	.st9{clip-path:url(#SVGID_8_);fill:#78AA41;stroke:#FFFFFF;stroke-width:0.3731;stroke-miterlimit:10;}
	.st10{fill:#CF2027;stroke:#FFFFFF;stroke-width:0.3731;stroke-miterlimit:10;}
	.st11{clip-path:url(#SVGID_14_);}
	.st12{clip-path:url(#SVGID_16_);}
	.st13{clip-path:url(#SVGID_18_);}
	.st14{clip-path:url(#SVGID_20_);}
	.st15{clip-path:url(#SVGID_22_);}
	.st16{clip-path:url(#SVGID_24_);}
	.st17{fill:#76AA42;}
	.st18{fill:none;stroke:#FFFFFF;stroke-width:0.2396;stroke-miterlimit:10;}
	.st19{fill:#F8D31D;}
	.st20{fill:#D02027;}
</style>
<g id="Background">
	<g>
		<path class="st17" d="M6.1,10.9c2.8,0,5-2.2,5-5c0-2.8-2.2-5-5-5c-2.8,0-5,2.2-5,5C1.1,8.7,3.4,10.9,6.1,10.9"/>
		<ellipse transform="matrix(0.7661 -0.6427 0.6427 0.7661 -2.3571 5.3166)" class="st18" cx="6.1" cy="5.9" rx="5" ry="5"/>
		<path class="st19" d="M18.8,11.1c2.8,0,5-2.2,5-5c0-2.8-2.2-5-5-5c-2.8,0-5,2.2-5,5C13.8,8.9,16.1,11.1,18.8,11.1"/>
		<ellipse transform="matrix(0.7661 -0.6427 0.6427 0.7661 0.4858 13.5419)" class="st18" cx="18.8" cy="6.1" rx="5" ry="5"/>
		<path class="st20" d="M31.3,11c2.8,0,5-2.2,5-5c0-2.8-2.2-5-5-5c-2.8,0-5,2.2-5,5C26.2,8.8,28.5,11,31.3,11"/>
		<ellipse transform="matrix(0.9717 -0.2364 0.2364 0.9717 -0.5324 7.5603)" class="st18" cx="31.3" cy="6" rx="5" ry="5"/>
	</g>
</g>
<g id="iPhone">
</g>
<g id="text">
</g>
</svg>
